# This file uses centimeters as units for non-parametric coordinates.

v -7.500000 0.000000 15.000000
v 0.000000 0.000000 15.000000
v 7.500000 0.000000 15.000000
v -7.500000 7.342904 15.000000
v 0.000000 7.342904 15.000000
v 7.500000 7.342904 15.000000
v -7.500000 7.342904 5.000000
v 0.000000 7.342904 5.000000
v 7.500000 7.342904 5.000000
v -7.500000 7.342904 -5.000000
v 0.000000 7.342904 -5.000000
v 7.500000 7.342904 -5.000000
v -7.500000 7.342904 -15.000000
v 0.000000 7.342904 -15.000000
v 7.500000 7.342904 -15.000000
v -7.500000 0.000000 -15.000000
v 0.000000 0.000000 -15.000000
v 7.500000 0.000000 -15.000000
v -7.500000 0.000000 -5.000000
v 0.000000 0.000000 -5.000000
v 7.500000 0.000000 -5.000000
v -7.500000 0.000000 5.000000
v 0.000000 0.000000 5.000000
v 7.500000 0.000000 5.000000
v 24.000000 0.000001 -15.000000
v 24.000000 0.000001 -5.000000
v 15.000000 -0.000001 5.000000
v 15.000000 -0.000001 15.000000
vt 0.375000 0.000000
vt 0.500000 0.000000
vt 0.625000 0.000000
vt 0.375000 0.250000
vt 0.500000 0.250000
vt 0.625000 0.250000
vt 0.375000 0.333333
vt 0.500000 0.333333
vt 0.625000 0.333333
vt 0.375000 0.416667
vt 0.500000 0.416667
vt 0.625000 0.416667
vt 0.375000 0.500000
vt 0.500000 0.500000
vt 0.625000 0.500000
vt 0.375000 0.750000
vt 0.500000 0.750000
vt 0.625000 0.750000
vt 0.375000 0.833333
vt 0.500000 0.833333
vt 0.625000 0.833333
vt 0.375000 0.916667
vt 0.500000 0.916667
vt 0.625000 0.916667
vt 0.375000 1.000000
vt 0.500000 1.000000
vt 0.625000 1.000000
vt 0.875000 0.000000
vt 0.791667 0.000000
vt 0.708333 0.000000
vt 0.875000 0.250000
vt 0.791667 0.250000
vt 0.708333 0.250000
vt 0.125000 0.000000
vt 0.208333 0.000000
vt 0.291667 0.000000
vt 0.125000 0.250000
vt 0.208333 0.250000
vt 0.291667 0.250000
vt 0.791667 0.125000
vt 0.875000 0.125000
vt 0.625000 0.125000
vt 0.708333 0.125000
vn 0.000000 0.000000 1.000000
vn 0.000000 0.000000 1.000000
vn 0.000000 0.000000 1.000000
vn 0.000000 0.000000 1.000000
vn 0.000000 0.000000 1.000000
vn 0.000000 0.000000 1.000000
vn 0.000000 0.000000 1.000000
vn 0.000000 0.000000 1.000000
vn 0.000000 1.000000 0.000000
vn 0.000000 1.000000 0.000000
vn 0.000000 1.000000 0.000000
vn 0.000000 1.000000 0.000000
vn 0.000000 1.000000 0.000000
vn 0.000000 1.000000 0.000000
vn 0.000000 1.000000 0.000000
vn 0.000000 1.000000 0.000000
vn 0.000000 1.000000 0.000000
vn 0.000000 1.000000 0.000000
vn 0.000000 1.000000 0.000000
vn 0.000000 1.000000 0.000000
vn 0.000000 1.000000 0.000000
vn 0.000000 1.000000 0.000000
vn 0.000000 1.000000 0.000000
vn 0.000000 1.000000 0.000000
vn 0.000000 1.000000 0.000000
vn 0.000000 1.000000 0.000000
vn 0.000000 1.000000 0.000000
vn 0.000000 1.000000 0.000000
vn 0.000000 1.000000 0.000000
vn 0.000000 1.000000 0.000000
vn 0.000000 1.000000 0.000000
vn 0.000000 1.000000 0.000000
vn 0.000000 0.000000 -1.000000
vn 0.000000 0.000000 -1.000000
vn 0.000000 0.000000 -1.000000
vn 0.000000 0.000000 -1.000000
vn 0.000000 0.000000 -1.000000
vn 0.000000 0.000000 -1.000000
vn 0.000000 0.000000 -1.000000
vn 0.000000 0.000000 -1.000000
vn 0.000000 -1.000000 0.000000
vn 0.000000 -1.000000 0.000000
vn 0.000000 -1.000000 0.000000
vn 0.000000 -1.000000 0.000000
vn 0.000000 -1.000000 0.000000
vn 0.000000 -1.000000 0.000000
vn 0.000000 -1.000000 0.000000
vn 0.000000 -1.000000 0.000000
vn 0.000000 -1.000000 0.000000
vn 0.000000 -1.000000 0.000000
vn 0.000000 -1.000000 0.000000
vn 0.000000 -1.000000 0.000000
vn 0.000000 -1.000000 0.000000
vn 0.000000 -1.000000 0.000000
vn 0.000000 -1.000000 0.000000
vn 0.000000 -1.000000 0.000000
vn 0.000000 -1.000000 0.000000
vn 0.000000 -1.000000 0.000000
vn 0.000000 -1.000000 0.000000
vn 0.000000 -1.000000 0.000000
vn 0.000000 -1.000000 0.000000
vn 0.000000 -1.000000 0.000000
vn 0.000000 -1.000000 0.000000
vn 0.000000 -1.000000 0.000000
vn 1.000000 0.000000 0.000000
vn 1.000000 0.000000 0.000000
vn 1.000000 0.000000 0.000000
vn 1.000000 0.000000 0.000000
vn -1.000000 -0.000000 0.000000
vn -1.000000 -0.000000 0.000000
vn -1.000000 -0.000000 0.000000
vn -1.000000 -0.000000 0.000000
vn -1.000000 -0.000000 0.000000
vn -1.000000 -0.000000 0.000000
vn -1.000000 -0.000000 0.000000
vn -1.000000 -0.000000 0.000000
vn -1.000000 0.000000 0.000000
vn -1.000000 0.000000 0.000000
vn -1.000000 0.000000 0.000000
vn -1.000000 0.000000 0.000000
vn 0.000000 -1.000000 0.000000
vn 0.000000 -1.000000 0.000000
vn 0.000000 -1.000000 0.000000
vn 0.000000 -1.000000 0.000000
vn 0.000000 0.000000 -1.000000
vn 0.000000 0.000000 -1.000000
vn 0.000000 0.000000 -1.000000
vn 0.406581 0.913615 0.000000
vn 0.406581 0.913615 0.000000
vn 0.406581 0.913615 0.000000
vn 0.406581 0.913615 0.000000
vn 0.000000 0.000000 1.000000
vn 0.000000 0.000000 1.000000
vn 0.000000 0.000000 1.000000
vn -0.000000 -1.000000 0.000000
vn -0.000000 -1.000000 0.000000
vn -0.000000 -1.000000 0.000000
vn -0.000000 -1.000000 0.000000
vn -0.000000 -0.000000 -1.000000
vn -0.000000 -0.000000 -1.000000
vn -0.000000 -0.000000 -1.000000
vn 0.699584 0.714551 0.000000
vn 0.699584 0.714551 0.000000
vn 0.699584 0.714551 0.000000
vn 0.699584 0.714551 0.000000
vn 0.000000 0.000000 1.000000
vn 0.000000 0.000000 1.000000
vn 0.000000 0.000000 1.000000
s off
f 1/1/1 2/2/2 5/5/3 4/4/4
f 2/2/5 3/3/6 6/6/7 5/5/8
f 4/4/9 5/5/10 8/8/11 7/7/12
f 5/5/13 6/6/14 9/9/15 8/8/16
f 7/7/17 8/8/18 11/11/19 10/10/20
f 8/8/21 9/9/22 12/12/23 11/11/24
f 10/10/25 11/11/26 14/14/27 13/13/28
f 11/11/29 12/12/30 15/15/31 14/14/32
f 13/13/33 14/14/34 17/17/35 16/16/36
f 14/14/37 15/15/38 18/18/39 17/17/40
f 16/16/41 17/17/42 20/20/43 19/19/44
f 17/17/45 18/18/46 21/21/47 20/20/48
f 19/19/49 20/20/50 23/23/51 22/22/52
f 20/20/53 21/21/54 24/24/55 23/23/56
f 22/22/57 23/23/58 2/26/59 1/25/60
f 23/23/61 24/24/62 3/27/63 2/26/64
f 24/30/65 21/29/66 12/32/67 9/33/68
f 16/34/69 19/35/70 10/38/71 13/37/72
f 19/35/73 22/36/74 7/39/75 10/38/76
f 22/36/77 1/1/78 4/4/79 7/39/80
f 21/29/81 18/28/82 25/41/83 26/40/84
f 18/28/85 15/31/86 25/41/87
f 15/31/88 12/32/89 26/40/90 25/41/91
f 12/32/92 21/29/93 26/40/94
f 3/3/95 24/30/96 27/43/97 28/42/98
f 24/30/99 9/33/100 27/43/101
f 9/33/102 6/6/103 28/42/104 27/43/105
f 6/6/106 3/3/107 28/42/108
